<svg width="600" height="600" version="1.1" viewBox="0 0 700 600" xmlns="http://www.w3.org/2000/svg" xmlns:xlink="http://www.w3.org/1999/xlink">
 <defs>
  <symbol id="n" overflow="visible">
   <path d="m39.078-2.3281c-2.0117 1.043-4.1094 1.8281-6.2969 2.3594s-4.4648 0.79688-6.8281 0.79688c-7.0859 0-12.699-1.9766-16.844-5.9375-4.1367-3.957-6.2031-9.3281-6.2031-16.109 0-6.7891 2.0664-12.164 6.2031-16.125 4.1445-3.9688 9.7578-5.9531 16.844-5.9531 2.3633 0 4.6406 0.26562 6.8281 0.79688s4.2852 1.3242 6.2969 2.375v8.7969c-2.0312-1.3828-4.0391-2.3984-6.0156-3.0469-1.9688-0.64453-4.0469-0.96875-6.2344-0.96875-3.9062 0-6.9844 1.2578-9.2344 3.7656-2.2422 2.5-3.3594 5.9531-3.3594 10.359 0 4.3867 1.1172 7.8359 3.3594 10.344 2.25 2.5 5.3281 3.75 9.2344 3.75 2.1875 0 4.2656-0.32031 6.2344-0.96875 1.9766-0.64453 3.9844-1.6602 6.0156-3.0469z"/>
  </symbol>
  <symbol id="h" overflow="visible">
   <path d="m28.594-23.219c-0.89844-0.41406-1.7891-0.72266-2.6719-0.92188-0.875-0.19531-1.7617-0.29688-2.6562-0.29688-2.6172 0-4.6328 0.84375-6.0469 2.5312-1.418 1.6797-2.125 4.0781-2.125 7.2031v14.703h-10.188v-31.891h10.188v5.2344c1.3125-2.0938 2.8164-3.6172 4.5156-4.5781 1.6953-0.95703 3.7344-1.4375 6.1094-1.4375 0.34375 0 0.71094 0.015625 1.1094 0.046875 0.39453 0.03125 0.97266 0.09375 1.7344 0.1875z"/>
  </symbol>
  <symbol id="a" overflow="visible">
   <path d="m36.734-16.031v2.9062h-23.828c0.23828 2.3867 1.0977 4.1797 2.5781 5.375 1.4883 1.1992 3.5625 1.7969 6.2188 1.7969 2.1445 0 4.3438-0.31641 6.5938-0.95312 2.25-0.63281 4.5625-1.5977 6.9375-2.8906v7.8594c-2.418 0.91797-4.8359 1.6055-7.25 2.0625-2.4062 0.46875-4.8125 0.70312-7.2188 0.70312-5.7734 0-10.262-1.4609-13.469-4.3906-3.1992-2.9375-4.7969-7.0547-4.7969-12.359 0-5.1953 1.5703-9.2852 4.7188-12.266 3.1445-2.9883 7.4688-4.4844 12.969-4.4844 5.0195 0 9.0312 1.5117 12.031 4.5312 3.0078 3.0234 4.5156 7.0586 4.5156 12.109zm-10.469-3.3906c0-1.9375-0.57031-3.5-1.7031-4.6875-1.125-1.1875-2.6016-1.7812-4.4219-1.7812-1.9805 0-3.5898 0.55859-4.8281 1.6719-1.2305 1.1055-1.9961 2.7031-2.2969 4.7969z"/>
  </symbol>
  <symbol id="b" overflow="visible">
   <path d="m19.203-14.359c-2.1367 0-3.7422 0.36719-4.8125 1.0938-1.0742 0.71875-1.6094 1.7812-1.6094 3.1875 0 1.293 0.42969 2.3047 1.2969 3.0312 0.86328 0.73047 2.0664 1.0938 3.6094 1.0938 1.9141 0 3.5312-0.6875 4.8438-2.0625s1.9688-3.0977 1.9688-5.1719v-1.1719zm15.578-3.8438v18.203h-10.281v-4.7344c-1.375 1.9375-2.918 3.3516-4.625 4.2344-1.7109 0.88281-3.7891 1.3281-6.2344 1.3281-3.3047 0-5.9844-0.96094-8.0469-2.8906-2.0625-1.9258-3.0938-4.4258-3.0938-7.5 0-3.75 1.2852-6.4922 3.8594-8.2344 2.5703-1.75 6.6133-2.625 12.125-2.625h6.0156v-0.79688c0-1.6133-0.64062-2.7969-1.9219-3.5469-1.2734-0.75-3.2578-1.125-5.9531-1.125-2.1797 0-4.2109 0.21875-6.0938 0.65625-1.875 0.4375-3.6211 1.0938-5.2344 1.9688v-7.7812c2.1875-0.53125 4.3789-0.92969 6.5781-1.2031 2.207-0.28125 4.4102-0.42188 6.6094-0.42188 5.75 0 9.8984 1.1367 12.453 3.4062 2.5625 2.2734 3.8438 5.9609 3.8438 11.062z"/>
  </symbol>
  <symbol id="g" overflow="visible">
   <path d="m16.031-40.953v9.0625h10.516v7.2812h-10.516v13.531c0 1.4805 0.28906 2.4805 0.875 3 0.59375 0.52344 1.7656 0.78125 3.5156 0.78125h5.2344v7.2969h-8.7344c-4.0312 0-6.8867-0.83594-8.5625-2.5156-1.6797-1.6875-2.5156-4.5391-2.5156-8.5625v-13.531h-5.0781v-7.2812h5.0781v-9.0625z"/>
  </symbol>
  <symbol id="f" overflow="visible">
   <path d="m26.594-27.234v-17.078h10.266v44.312h-10.266v-4.6094c-1.3984 1.875-2.9453 3.25-4.6406 4.125-1.6875 0.875-3.6406 1.3125-5.8594 1.3125-3.9297 0-7.1562-1.5625-9.6875-4.6875-2.5234-3.125-3.7812-7.1445-3.7812-12.062 0-4.9141 1.2578-8.9375 3.7812-12.062 2.5312-3.125 5.7578-4.6875 9.6875-4.6875 2.1953 0 4.1445 0.44531 5.8438 1.3281 1.707 0.88672 3.2578 2.2578 4.6562 4.1094zm-6.7188 20.656c2.1875 0 3.8516-0.79688 5-2.3906 1.1445-1.5938 1.7188-3.9102 1.7188-6.9531 0-3.0391-0.57422-5.3594-1.7188-6.9531-1.1484-1.5938-2.8125-2.3906-5-2.3906-2.168 0-3.8242 0.79688-4.9688 2.3906-1.1484 1.5938-1.7188 3.9141-1.7188 6.9531 0 3.043 0.57031 5.3594 1.7188 6.9531 1.1445 1.5938 2.8008 2.3906 4.9688 2.3906z"/>
  </symbol>
  <symbol id="e" overflow="visible">
   <path d="m21.875-6.5781c2.1758 0 3.8359-0.79688 4.9844-2.3906 1.1562-1.5938 1.7344-3.9102 1.7344-6.9531 0-3.0391-0.57812-5.3594-1.7344-6.9531-1.1484-1.5938-2.8086-2.3906-4.9844-2.3906-2.1875 0-3.8672 0.80469-5.0312 2.4062-1.168 1.6055-1.75 3.918-1.75 6.9375 0 3.0234 0.58203 5.3359 1.75 6.9375 1.1641 1.6055 2.8438 2.4062 5.0312 2.4062zm-6.7812-20.656c1.4062-1.8516 2.9609-3.2227 4.6719-4.1094 1.707-0.88281 3.6719-1.3281 5.8906-1.3281 3.9375 0 7.1641 1.5625 9.6875 4.6875 2.5195 3.125 3.7812 7.1484 3.7812 12.062 0 4.918-1.2617 8.9375-3.7812 12.062-2.5234 3.125-5.75 4.6875-9.6875 4.6875-2.2188 0-4.1836-0.44531-5.8906-1.3281-1.7109-0.88281-3.2656-2.2539-4.6719-4.1094v4.6094h-10.188v-44.312h10.188z"/>
  </symbol>
  <symbol id="d" overflow="visible">
   <path d="m0.71875-31.891h10.188l8.5781 21.641 7.2812-21.641h10.203l-13.422 34.906c-1.3438 3.5508-2.9141 6.0352-4.7031 7.4531-1.793 1.4141-4.1641 2.125-7.1094 2.125h-5.8906v-6.7031h3.1875c1.7266 0 2.9844-0.27734 3.7656-0.82812 0.78906-0.54297 1.4062-1.5273 1.8438-2.9531l0.28125-0.89062z"/>
  </symbol>
  <symbol id="c" overflow="visible">
   <path d="m22.391-26.062c1.7266 0 3.0352-0.37891 3.9219-1.1406 0.89453-0.75781 1.3438-1.8789 1.3438-3.3594 0-1.457-0.44922-2.5703-1.3438-3.3438-0.88672-0.76953-2.1953-1.1562-3.9219-1.1562h-6.0781v9zm0.35938 18.594c2.207 0 3.8633-0.46094 4.9688-1.3906 1.1133-0.92578 1.6719-2.332 1.6719-4.2188 0-1.832-0.55469-3.207-1.6562-4.125-1.0938-0.92578-2.7578-1.3906-4.9844-1.3906h-6.4375v11.125zm10.203-15.281c2.3516 0.67969 4.1758 1.9375 5.4688 3.7812 1.2891 1.8438 1.9375 4.1055 1.9375 6.7812 0 4.1055-1.3867 7.1641-4.1562 9.1719-2.7734 2.0117-6.9922 3.0156-12.656 3.0156h-18.188v-42.516h16.453c5.9062 0 10.18 0.89062 12.828 2.6719 2.6562 1.7812 3.9844 4.6406 3.9844 8.5781 0 2.0625-0.48438 3.8242-1.4531 5.2812-0.96875 1.4492-2.375 2.5273-4.2188 3.2344z"/>
  </symbol>
  <symbol id="m" overflow="visible">
   <path d="m36.969-19.422v19.422h-10.25v-14.859c0-2.7578-0.0625-4.6602-0.1875-5.7031-0.125-1.0391-0.33984-1.8125-0.64062-2.3125-0.39844-0.65625-0.9375-1.1719-1.625-1.5469s-1.4648-0.5625-2.3281-0.5625c-2.1367 0-3.8125 0.82422-5.0312 2.4688-1.2109 1.6484-1.8125 3.9219-1.8125 6.8281v15.688h-10.188v-31.891h10.188v4.6562c1.5391-1.8516 3.1719-3.2227 4.8906-4.1094 1.7266-0.88281 3.6406-1.3281 5.7344-1.3281 3.6875 0 6.4844 1.1328 8.3906 3.3906 1.9062 2.2617 2.8594 5.5469 2.8594 9.8594z"/>
  </symbol>
  <symbol id="l" overflow="visible">
   <path d="m16.312-34.234v25.953h3.9375c4.4766 0 7.8984-1.1094 10.266-3.3281 2.3633-2.2266 3.5469-5.457 3.5469-9.6875 0-4.2188-1.1797-7.4258-3.5312-9.625-2.3555-2.207-5.7812-3.3125-10.281-3.3125zm-10.953-8.2812h11.562c6.4453 0 11.25 0.46094 14.406 1.375 3.1641 0.91797 5.8789 2.4805 8.1406 4.6875 2 1.918 3.4844 4.1328 4.4531 6.6406 0.96875 2.5 1.4531 5.3398 1.4531 8.5156 0 3.2109-0.48438 6.0742-1.4531 8.5938-0.96875 2.5117-2.4531 4.7266-4.4531 6.6406-2.2734 2.1992-5.0078 3.7617-8.2031 4.6875-3.1875 0.91797-7.9688 1.375-14.344 1.375h-11.562z"/>
  </symbol>
  <symbol id="k" overflow="visible">
   <path d="m0.89062-31.891h10.188l7.9531 22.031 7.9062-22.031h10.234l-12.562 31.891h-11.188z"/>
  </symbol>
  <symbol id="j" overflow="visible">
   <path d="m4.9062-31.891h10.188v31.891h-10.188zm0-12.422h10.188v8.3125h-10.188z"/>
  </symbol>
  <symbol id="i" overflow="visible">
   <path d="m29.812-30.906v7.75c-2.1797-0.90625-4.2812-1.5859-6.3125-2.0469-2.0312-0.45703-3.9492-0.6875-5.75-0.6875-1.9375 0-3.3828 0.24609-4.3281 0.73438-0.9375 0.48047-1.4062 1.2266-1.4062 2.2344 0 0.8125 0.35156 1.4375 1.0625 1.875 0.71875 0.4375 2 0.76172 3.8438 0.96875l1.7969 0.25c5.2188 0.66797 8.7266 1.7617 10.531 3.2812 1.8008 1.5234 2.7031 3.9023 2.7031 7.1406 0 3.4062-1.2578 5.9648-3.7656 7.6719-2.5 1.7109-6.2422 2.5625-11.219 2.5625-2.1055 0-4.2812-0.16797-6.5312-0.5-2.25-0.33203-4.5625-0.83203-6.9375-1.5v-7.75c2.0312 0.99219 4.1133 1.7344 6.25 2.2344 2.1328 0.49219 4.3047 0.73438 6.5156 0.73438 1.9883 0 3.4844-0.27344 4.4844-0.82812 1.0078-0.55078 1.5156-1.3672 1.5156-2.4531 0-0.90625-0.35156-1.582-1.0469-2.0312-0.6875-0.44531-2.0625-0.78906-4.125-1.0312l-1.7969-0.23438c-4.543-0.57031-7.7266-1.625-9.5469-3.1562-1.8242-1.5391-2.7344-3.8789-2.7344-7.0156 0-3.375 1.1562-5.8789 3.4688-7.5156 2.3203-1.6328 5.875-2.4531 10.656-2.4531 1.8828 0 3.8594 0.14844 5.9219 0.4375 2.0703 0.28125 4.3203 0.72656 6.75 1.3281z"/>
  </symbol>
 </defs>
 <g>
  <path d="m420 468.12c-6.4531 0-11.668-5.2305-11.668-11.668v-338.33c0-6.4414 5.2148-11.668 11.668-11.668s11.668 5.2266 11.668 11.668v338.33c0 6.4375-5.2148 11.668-11.668 11.668" fill-rule="evenodd"/>
  <path d="m455 468.12c-6.4531 0-11.668-5.2305-11.668-11.668v-338.33c0-6.4414 5.2148-11.668 11.668-11.668s11.668 5.2266 11.668 11.668v338.33c0 6.4375-5.2148 11.668-11.668 11.668" fill-rule="evenodd"/>
  <path d="m326.67 468.12c-6.4531 0-11.668-5.2305-11.668-11.668v-338.33c0-6.4414 5.2148-11.668 11.668-11.668 6.4492 0 11.664 5.2266 11.664 11.668v338.33c0 6.4375-5.2148 11.668-11.664 11.668" fill-rule="evenodd"/>
  <path d="m361.67 468.12c-6.4531 0-11.668-5.2305-11.668-11.668v-338.33c0-6.4414 5.2148-11.668 11.668-11.668 6.4492 0 11.664 5.2266 11.664 11.668v338.33c0 6.4375-5.2148 11.668-11.664 11.668" fill-rule="evenodd"/>
  <path d="m501.67 468.12c-6.4531 0-11.668-5.2305-11.668-11.668v-338.33c0-6.4414 5.2148-11.668 11.668-11.668 6.4492 0 11.664 5.2266 11.664 11.668v338.33c0 6.4375-5.2148 11.668-11.664 11.668" fill-rule="evenodd"/>
  <path d="m571.67 468.12c-6.4531 0-11.668-5.2305-11.668-11.668v-338.33c0-6.4414 5.2148-11.668 11.668-11.668 6.4492 0 11.664 5.2266 11.664 11.668v338.33c0 6.4375-5.2148 11.668-11.664 11.668" fill-rule="evenodd"/>
  <path d="m618.33 468.12c-6.4492 0-11.664-5.2305-11.664-11.668v-338.33c0-6.4414 5.2148-11.668 11.664-11.668 6.4531 0 11.668 5.2266 11.668 11.668v338.33c0 6.4375-5.2148 11.668-11.668 11.668" fill-rule="evenodd"/>
  <path d="m280 468.12c-6.4531 0-11.668-5.2305-11.668-11.668v-338.33c0-6.4414 5.2148-11.668 11.668-11.668s11.668 5.2266 11.668 11.668v338.33c0 6.4375-5.2148 11.668-11.668 11.668" fill-rule="evenodd"/>
  <path d="m245 468.12c-6.4531 0-11.668-5.2305-11.668-11.668v-338.33c0-6.4414 5.2148-11.668 11.668-11.668s11.668 5.2266 11.668 11.668v338.33c0 6.4375-5.2148 11.668-11.668 11.668" fill-rule="evenodd"/>
  <path d="m198.33 468.12c-6.4492 0-11.664-5.2305-11.664-11.668v-338.33c0-6.4414 5.2148-11.668 11.664-11.668 6.4531 0 11.668 5.2266 11.668 11.668v338.33c0 6.4375-5.2148 11.668-11.668 11.668" fill-rule="evenodd"/>
  <path d="m128.33 468.12c-6.4492 0-11.664-5.2305-11.664-11.668v-338.33c0-6.4414 5.2148-11.668 11.664-11.668 6.4531 0 11.668 5.2266 11.668 11.668v338.33c0 6.4375-5.2148 11.668-11.668 11.668" fill-rule="evenodd"/>
  <path d="m81.668 468.12c-6.4531 0-11.668-5.2305-11.668-11.668v-338.33c0-6.4414 5.2148-11.668 11.668-11.668 6.4492 0 11.664 5.2266 11.664 11.668v338.33c0 6.4375-5.2148 11.668-11.664 11.668" fill-rule="evenodd"/>
  <path d="m116.67 59.785h-35c-6.4531 0-11.668-5.2266-11.668-11.664 0-6.4414 5.2148-11.668 11.668-11.668h35c6.4492 0 11.664 5.2266 11.664 11.668 0 6.4375-5.2148 11.664-11.664 11.664m81.664 0h-35c-6.4492 0-11.664-5.2266-11.664-11.664 0-6.4414 5.2148-11.668 11.664-11.668h35c6.4531 0 11.668 5.2266 11.668 11.668 0 6.4375-5.2148 11.664-11.668 11.664m81.668 0h-35c-6.4531 0-11.668-5.2266-11.668-11.664 0-6.4414 5.2148-11.668 11.668-11.668h35c6.4531 0 11.668 5.2266 11.668 11.668 0 6.4375-5.2148 11.664-11.668 11.664m81.668 0h-35c-6.4531 0-11.668-5.2266-11.668-11.664 0-6.4414 5.2148-11.668 11.668-11.668h35c6.4492 0 11.664 5.2266 11.664 11.668 0 6.4375-5.2148 11.664-11.664 11.664m81.664 0h-35c-6.4492 0-11.664-5.2266-11.664-11.664 0-6.4414 5.2148-11.668 11.664-11.668h35c6.4531 0 11.668 5.2266 11.668 11.668 0 6.4375-5.2148 11.664-11.668 11.664m81.668 0h-35c-6.4531 0-11.668-5.2266-11.668-11.664 0-6.4414 5.2148-11.668 11.668-11.668h35c6.4531 0 11.668 5.2266 11.668 11.668 0 6.4375-5.2148 11.664-11.668 11.664m81.668 0h-35c-6.4531 0-11.668-5.2266-11.668-11.664 0-6.4414 5.2148-11.668 11.668-11.668h35c6.4492 0 11.664 5.2266 11.664 11.668 0 6.4375-5.2148 11.664-11.664 11.664m81.664 0h-35c-6.4492 0-11.664-5.2266-11.664-11.664 0-6.4414 5.2148-11.668 11.664-11.668h35c6.4531 0 11.668 5.2266 11.668 11.668 0 6.4375-5.2148 11.664-11.668 11.664m-676.66 11.668c-6.4531 0-11.668-5.2266-11.668-11.668v-11.664c0-6.4414 5.2148-11.668 11.668-11.668h23.332c6.4531 0 11.668 5.2266 11.668 11.668 0 6.4375-5.2148 11.664-11.668 11.664h-11.668c0 6.4414-5.2148 11.668-11.664 11.668m676.66 70c-6.4492 0-11.664-5.2266-11.664-11.668v-35c0-6.4375 5.2148-11.664 11.664-11.664 6.4531 0 11.668 5.2266 11.668 11.664v35c0 6.4414-5.2148 11.668-11.668 11.668m-676.66 11.668c-6.4531 0-11.668-5.2305-11.668-11.668v-35c0-6.4414 5.2148-11.668 11.668-11.668 6.4492 0 11.664 5.2266 11.664 11.668v35c0 6.4375-5.2148 11.668-11.664 11.668m676.66 70c-6.4492 0-11.664-5.2305-11.664-11.668v-35c0-6.4414 5.2148-11.668 11.664-11.668 6.4531 0 11.668 5.2266 11.668 11.668v35c0 6.4375-5.2148 11.668-11.668 11.668m-676.66 11.664c-6.4531 0-11.668-5.2266-11.668-11.664v-35c0-6.4414 5.2148-11.668 11.668-11.668 6.4492 0 11.664 5.2266 11.664 11.668v35c0 6.4375-5.2148 11.664-11.664 11.664m676.66 70c-6.4492 0-11.664-5.2266-11.664-11.664v-35c0-6.4414 5.2148-11.668 11.664-11.668 6.4531 0 11.668 5.2266 11.668 11.668v35c0 6.4375-5.2148 11.664-11.668 11.664m-676.66 11.668c-6.4531 0-11.668-5.2266-11.668-11.668v-35c0-6.4375 5.2148-11.664 11.668-11.664 6.4492 0 11.664 5.2266 11.664 11.664v35c0 6.4414-5.2148 11.668-11.664 11.668m676.66 70c-6.4492 0-11.664-5.2266-11.664-11.668v-35c0-6.4375 5.2148-11.664 11.664-11.664 6.4531 0 11.668 5.2266 11.668 11.664v35c0 6.4414-5.2148 11.668-11.668 11.668m-676.66 11.668c-6.4531 0-11.668-5.2305-11.668-11.668v-35c0-6.4414 5.2148-11.668 11.668-11.668 6.4492 0 11.664 5.2266 11.664 11.668v35c0 6.4375-5.2148 11.668-11.664 11.668m676.66 70c-6.4492 0-11.664-5.2305-11.664-11.668v-35c0-6.4414 5.2148-11.668 11.664-11.668 6.4531 0 11.668 5.2266 11.668 11.668v35c0 6.4375-5.2148 11.668-11.668 11.668m-676.66 11.664c-6.4531 0-11.668-5.2266-11.668-11.664v-35c0-6.4414 5.2148-11.668 11.668-11.668 6.4492 0 11.664 5.2266 11.664 11.668v35c0 6.4375-5.2148 11.664-11.664 11.664m23.332 58.336h-23.332c-6.4531 0-11.668-5.2305-11.668-11.668v-11.668c0-6.4375 5.2148-11.664 11.668-11.664 6.4492 0 11.664 5.2266 11.664 11.664h11.668c6.4531 0 11.668 5.2266 11.668 11.668 0 6.4375-5.2148 11.668-11.668 11.668m81.668 0h-35c-6.4531 0-11.668-5.2305-11.668-11.668 0-6.4414 5.2148-11.668 11.668-11.668h35c6.4492 0 11.664 5.2266 11.664 11.668 0 6.4375-5.2148 11.668-11.664 11.668m81.664 0h-35c-6.4492 0-11.664-5.2305-11.664-11.668 0-6.4414 5.2148-11.668 11.664-11.668h35c6.4531 0 11.668 5.2266 11.668 11.668 0 6.4375-5.2148 11.668-11.668 11.668m81.668 0h-35c-6.4531 0-11.668-5.2305-11.668-11.668 0-6.4414 5.2148-11.668 11.668-11.668h35c6.4531 0 11.668 5.2266 11.668 11.668 0 6.4375-5.2148 11.668-11.668 11.668m81.668 0h-35c-6.4531 0-11.668-5.2305-11.668-11.668 0-6.4414 5.2148-11.668 11.668-11.668h35c6.4492 0 11.664 5.2266 11.664 11.668 0 6.4375-5.2148 11.668-11.664 11.668m81.664 0h-35c-6.4492 0-11.664-5.2305-11.664-11.668 0-6.4414 5.2148-11.668 11.664-11.668h35c6.4531 0 11.668 5.2266 11.668 11.668 0 6.4375-5.2148 11.668-11.668 11.668m81.668 0h-35c-6.4531 0-11.668-5.2305-11.668-11.668 0-6.4414 5.2148-11.668 11.668-11.668h35c6.4531 0 11.668 5.2266 11.668 11.668 0 6.4375-5.2148 11.668-11.668 11.668m81.668 0h-35c-6.4531 0-11.668-5.2305-11.668-11.668 0-6.4414 5.2148-11.668 11.668-11.668h35c6.4492 0 11.664 5.2266 11.664 11.668 0 6.4375-5.2148 11.668-11.664 11.668m81.664 0h-35c-6.4492 0-11.664-5.2305-11.664-11.668 0-6.4414 5.2148-11.668 11.664-11.668h23.336v-11.664c0-6.4414 5.2148-11.668 11.664-11.668 6.4531 0 11.668 5.2266 11.668 11.668v23.332c0 6.4375-5.2148 11.668-11.668 11.668" fill-rule="evenodd"/>
 </g>
</svg>